<svg width="100" height="100" viewBox="0 0 100 100" fill="none" xmlns="http://www.w3.org/2000/svg">
<path d="M77.3438 25V65.625C77.3438 66.2466 77.0968 66.8427 76.6573 67.2823C76.2178 67.7218 75.6216 67.9688 75 67.9688C74.3784 67.9688 73.7823 67.7218 73.3427 67.2823C72.9032 66.8427 72.6563 66.2466 72.6563 65.625V30.6563L26.6563 76.6563C26.212 77.0703 25.6243 77.2956 25.0171 77.2849C24.4099 77.2742 23.8306 77.0282 23.4012 76.5988C22.9718 76.1694 22.7258 75.5901 22.7151 74.9829C22.7044 74.3757 22.9298 73.788 23.3438 73.3437L69.3438 27.3438H34.375C33.7534 27.3438 33.1573 27.0968 32.7177 26.6573C32.2782 26.2177 32.0313 25.6216 32.0313 25C32.0313 24.3784 32.2782 23.7823 32.7177 23.3427C33.1573 22.9032 33.7534 22.6563 34.375 22.6562H75C75.6216 22.6563 76.2178 22.9032 76.6573 23.3427C77.0968 23.7823 77.3438 24.3784 77.3438 25Z" fill="white"/>
</svg>
